<svg width="250" height="250" viewBox="0 0 250 250" fill="none" xmlns="http://www.w3.org/2000/svg">
<rect width="250" height="250" rx="48" fill="#4A1B86"/>
<g filter="url(#filter0_d)">
<path fill-rule="evenodd" clip-rule="evenodd" d="M122.358 62.5385C123.203 62.1817 124.099 62.0001 125 62C125.901 62.0001 126.797 62.1817 127.642 62.5385L167.185 78.9581C170.081 80.1608 172 83.2269 172 86.6523V125C172 145.103 160.014 160.885 149.677 170.902C144.351 176.061 139.061 180.084 135.117 182.814C133.138 184.184 131.477 185.242 130.295 185.966C129.703 186.329 129.23 186.609 128.894 186.804C128.726 186.902 128.593 186.978 128.496 187.033L128.379 187.099L128.367 187.106C126.28 188.283 123.798 188.304 121.681 187.132L121.658 187.12L121.633 187.106L121.621 187.099L121.504 187.033C121.407 186.978 121.274 186.902 121.106 186.804C120.77 186.609 120.297 186.329 119.705 185.966C118.523 185.242 116.862 184.184 114.883 182.814C110.939 180.084 105.649 176.061 100.324 170.902C89.9856 160.885 78 145.103 78 125V86.6523C78 83.2269 79.9189 80.1608 82.8154 78.9581L122.358 62.5385ZM125 62C124.099 62.0001 123.203 62.1817 122.358 62.5385L122.394 62.5233C123.239 62.1724 124.122 61.9999 125 62ZM132.421 165.056C134.791 163.189 137.352 161.005 139.903 158.533C149.354 149.376 157.158 137.766 157.158 125V92.3469L132.421 82.0751V165.056Z" fill="#9440FF"/>
</g>
<path fill-rule="evenodd" clip-rule="evenodd" d="M183.521 112.231C182.93 112.391 182.293 112.094 182.083 111.513L180.942 108.356C178.492 101.58 172.416 97.1729 165.735 96.5689C163.249 96.3442 160.679 96.6463 158.181 97.5493C148.972 100.879 144.231 111.115 147.592 120.413L148.733 123.569C148.943 124.15 148.644 124.786 148.087 125.041C141.861 127.896 138.779 135.15 141.172 141.769L148.78 162.812C151.301 169.786 158.944 173.415 165.851 170.918L199.2 158.861C206.107 156.364 209.662 148.687 207.141 141.714L199.534 120.67C197.141 114.051 190.133 110.445 183.521 112.231ZM172.604 111.37C170.924 106.721 165.828 104.302 161.224 105.967C161.036 106.035 160.851 106.109 160.671 106.188C156.432 108.049 154.318 112.94 155.929 117.398L157.071 120.555C157.281 121.136 157.918 121.438 158.493 121.23L173.084 115.956C173.659 115.748 173.955 115.108 173.745 114.527L172.604 111.37Z" fill="white"/>
<path d="M157.157 114.5V95H171.997V114.5H157.157Z" fill="#9440FF"/>
<defs>
<filter id="filter0_d" x="78" y="62" width="104" height="132" filterUnits="userSpaceOnUse" color-interpolation-filters="sRGB">
<feFlood flood-opacity="0" result="BackgroundImageFix"/>
<feColorMatrix in="SourceAlpha" type="matrix" values="0 0 0 0 0 0 0 0 0 0 0 0 0 0 0 0 0 0 127 0" result="hardAlpha"/>
<feOffset dx="10" dy="6"/>
<feComposite in2="hardAlpha" operator="out"/>
<feColorMatrix type="matrix" values="0 0 0 0 0.175169 0 0 0 0 0.0513889 0 0 0 0 0.333333 0 0 0 1 0"/>
<feBlend mode="normal" in2="BackgroundImageFix" result="effect1_dropShadow"/>
<feBlend mode="normal" in="SourceGraphic" in2="effect1_dropShadow" result="shape"/>
</filter>
</defs>
</svg>