<svg width="32" height="32" viewBox="0 0 32 32" fill="none" xmlns="http://www.w3.org/2000/svg">
<path d="M3 14.9333C3 12.5769 5.01472 10.6667 7.5 10.6667H25.5C27.9853 10.6667 30 12.5769 30 14.9333V27.7333C30 30.0898 27.9853 32 25.5 32H7.5C5.01472 32 3 30.0898 3 27.7333V14.9333Z" fill="#A451FC"/>
<path d="M24.6 8.53333V10.6667C24.6 10.6667 20.9734 10.6667 16.5 10.6667C12.0265 10.6667 8.4 10.6667 8.4 10.6667V8.53333C8.4 3.8205 12.0265 0 16.5 0C20.9734 0 24.6 3.8205 24.6 8.53333ZM16.5 4.26667C14.2632 4.26667 12.45 6.17692 12.45 8.53333V10.6667C12.45 10.6667 14.2632 10.6667 16.5 10.6667C18.7368 10.6667 20.55 10.6667 20.55 10.6667V8.53333C20.55 6.17692 18.7368 4.26667 16.5 4.26667Z" fill="#A451FC"/>
</svg>
