<svg width="32" height="32" viewBox="0 0 32 32" fill="none" xmlns="http://www.w3.org/2000/svg">
<path d="M14 25H18V29C18 30.1046 17.1046 31 16 31C14.8954 31 14 30.1046 14 29V25Z" fill="#FFD600"/>
<path fill-rule="evenodd" clip-rule="evenodd" d="M0 6C0 2.68629 2.68629 0 6 0H26C29.3137 0 32 2.68629 32 6V19C32 22.3137 29.3137 25 26 25H18V22V17V15.5L19.741 17.2007C20.4865 17.933 21.6953 17.933 22.4408 17.2007C23.1864 16.4685 23.1864 15.2815 22.4408 14.5492L17.3499 9.54918C16.9919 9.19755 16.5063 9 16 9C15.4936 9 15.0081 9.19755 14.6501 9.54918L9.55917 14.5492C8.81361 15.2815 8.81361 16.4685 9.55917 17.2007C10.3047 17.933 11.5135 17.933 12.259 17.2007L14 15.5V17V22V25H6C2.68629 25 0 22.3137 0 19V6Z" fill="#FFD600"/>
</svg>
