<svg width="32" height="32" viewBox="0 0 32 32" fill="none" xmlns="http://www.w3.org/2000/svg">
<path fill-rule="evenodd" clip-rule="evenodd" d="M15.3253 0.136759C15.5413 0.046136 15.7701 2.01413e-05 16 6.54163e-09C16.2299 2.00579e-05 16.4587 0.046136 16.6747 0.136759L26.7706 4.3068C27.51 4.61226 28 5.39094 28 6.26088V16C28 21.1056 24.9398 25.1136 22.3004 27.6576C20.9408 28.9678 19.5901 29.9896 18.5832 30.6828C18.0777 31.0308 17.6538 31.2994 17.3519 31.4834C17.2008 31.5756 17.0799 31.6468 16.9942 31.6962C16.9514 31.721 16.9173 31.7404 16.8926 31.7544L16.8627 31.7712L16.8597 31.7728C16.3268 32.0718 15.6931 32.0772 15.1526 31.7796L15.1468 31.7764L15.1403 31.7728L15.1373 31.7712L15.1074 31.7544C15.0827 31.7404 15.0486 31.721 15.0058 31.6962C14.9201 31.6468 14.7992 31.5756 14.6481 31.4834C14.3462 31.2994 13.9223 31.0308 13.4168 30.6828C12.4099 29.9896 11.0592 28.9678 9.69968 27.6576C7.06016 25.1136 4 21.1056 4 16V6.26088C4 5.39094 4.48992 4.61226 5.22946 4.3068L15.3253 0.136759ZM16 6.54163e-09C15.7701 2.01413e-05 15.5413 0.046136 15.3253 0.136759L15.3347 0.13289C15.5504 0.0437864 15.7758 -1.95448e-05 16 6.54163e-09ZM17.8947 26.173C18.4999 25.6988 19.1538 25.144 19.8049 24.5164C22.218 22.1906 24.2106 19.2422 24.2106 16V7.70714L17.8947 5.09844V26.173Z" fill="#FF4141"/>
</svg>
