<svg width="32" height="32" viewBox="0 0 32 32" fill="none" xmlns="http://www.w3.org/2000/svg">
<path d="M7.89307 3.45689L6.97505 0.702781C6.66269 -0.23426 5.33729 -0.23426 5.02493 0.702781L4.10691 3.45689C4.00461 3.76379 3.76377 4.00463 3.45687 4.10693L0.702779 5.02495C-0.23426 5.33731 -0.23426 6.66271 0.702779 6.97507L3.45687 7.89309C3.76377 7.99539 4.00461 8.23623 4.10691 8.54313L5.02493 11.2972C5.33729 12.2343 6.66269 12.2343 6.97505 11.2972L7.89307 8.54313C7.99537 8.23623 8.23621 7.99539 8.54311 7.89309L11.2972 6.97507C12.2342 6.66271 12.2342 5.33731 11.2972 5.02495L8.54311 4.10693C8.23621 4.00463 7.99537 3.76379 7.89307 3.45689Z" fill="#3250ED"/>
<path d="M7.89307 23.4568L6.97505 20.7028C6.66269 19.7658 5.33729 19.7658 5.02493 20.7028L4.10691 23.4568C4.00461 23.7638 3.76377 24.0046 3.45687 24.107L0.702779 25.025C-0.23426 25.3372 -0.23426 26.6628 0.702779 26.975L3.45687 27.893C3.76377 27.9954 4.00461 28.2362 4.10691 28.5432L5.02493 31.2972C5.33729 32.2342 6.66269 32.2342 6.97505 31.2972L7.89307 28.5432C7.99537 28.2362 8.23621 27.9954 8.54311 27.893L11.2972 26.975C12.2342 26.6628 12.2342 25.3372 11.2972 25.025L8.54311 24.107C8.23621 24.0046 7.99537 23.7638 7.89307 23.4568Z" fill="#3250ED"/>
<path d="M23.7862 10.0661L21.9502 3.63983C21.3254 1.4534 18.6746 1.4534 18.0499 3.63983L16.2138 10.0661C16.0092 10.7822 15.5275 11.3441 14.9137 11.5828L9.40555 13.7249C7.53147 14.4537 7.53147 17.5463 9.40555 18.2751L14.9137 20.4172C15.5275 20.656 16.0092 21.2178 16.2138 21.934L18.0499 28.3602C18.6746 30.5466 21.3254 30.5466 21.9502 28.3602L23.7862 21.934C23.9908 21.2178 24.4724 20.656 25.0862 20.4172L30.5944 18.2751C32.4686 17.5463 32.4686 14.4537 30.5944 13.7249L25.0862 11.5828C24.4724 11.3441 23.9908 10.7822 23.7862 10.0661Z" fill="#3250ED"/>
</svg>
