<svg width="1792" height="1664" viewBox="0 0 1792 1664" fill="none" xmlns="http://www.w3.org/2000/svg">
<mask id="mask0" style="mask-type:alpha" maskUnits="userSpaceOnUse" x="0" y="0" width="1792" height="1664">
<mask id="path-1-inside-1" fill="white">
<path d="M0 0H128V128H0V0Z"/>
<path d="M0 128H128V256H0V128Z"/>
<path d="M0 256H128V384H0V256Z"/>
<path d="M0 384H128V512H0V384Z"/>
<path d="M0 512H128V640H0V512Z"/>
<path d="M0 640H128V768H0V640Z"/>
<path d="M0 768H128V896H0V768Z"/>
<path d="M0 896H128V1024H0V896Z"/>
<path d="M0 1024H128V1152H0V1024Z"/>
<path d="M0 1152H128V1280H0V1152Z"/>
<path d="M0 1280H128V1408H0V1280Z"/>
<path d="M0 1408H128V1536H0V1408Z"/>
<path d="M0 1536H128V1664H0V1536Z"/>
<path d="M128 0H256V128H128V0Z"/>
<path d="M128 128H256V256H128V128Z"/>
<path d="M128 256H256V384H128V256Z"/>
<path d="M128 384H256V512H128V384Z"/>
<path d="M128 512H256V640H128V512Z"/>
<path d="M128 640H256V768H128V640Z"/>
<path d="M128 768H256V896H128V768Z"/>
<path d="M128 896H256V1024H128V896Z"/>
<path d="M128 1024H256V1152H128V1024Z"/>
<path d="M128 1152H256V1280H128V1152Z"/>
<path d="M128 1280H256V1408H128V1280Z"/>
<path d="M128 1408H256V1536H128V1408Z"/>
<path d="M128 1536H256V1664H128V1536Z"/>
<path d="M256 0H384V128H256V0Z"/>
<path d="M256 128H384V256H256V128Z"/>
<path d="M256 256H384V384H256V256Z"/>
<path d="M256 384H384V512H256V384Z"/>
<path d="M256 512H384V640H256V512Z"/>
<path d="M256 640H384V768H256V640Z"/>
<path d="M256 768H384V896H256V768Z"/>
<path d="M256 896H384V1024H256V896Z"/>
<path d="M256 1024H384V1152H256V1024Z"/>
<path d="M256 1152H384V1280H256V1152Z"/>
<path d="M256 1280H384V1408H256V1280Z"/>
<path d="M256 1408H384V1536H256V1408Z"/>
<path d="M256 1536H384V1664H256V1536Z"/>
<path d="M384 0H512V128H384V0Z"/>
<path d="M384 128H512V256H384V128Z"/>
<path d="M384 256H512V384H384V256Z"/>
<path d="M384 384H512V512H384V384Z"/>
<path d="M384 512H512V640H384V512Z"/>
<path d="M384 640H512V768H384V640Z"/>
<path d="M384 768H512V896H384V768Z"/>
<path d="M384 896H512V1024H384V896Z"/>
<path d="M384 1024H512V1152H384V1024Z"/>
<path d="M384 1152H512V1280H384V1152Z"/>
<path d="M384 1280H512V1408H384V1280Z"/>
<path d="M384 1408H512V1536H384V1408Z"/>
<path d="M384 1536H512V1664H384V1536Z"/>
<path d="M512 0H640V128H512V0Z"/>
<path d="M512 128H640V256H512V128Z"/>
<path d="M512 256H640V384H512V256Z"/>
<path d="M512 384H640V512H512V384Z"/>
<path d="M512 512H640V640H512V512Z"/>
<path d="M512 640H640V768H512V640Z"/>
<path d="M512 768H640V896H512V768Z"/>
<path d="M512 896H640V1024H512V896Z"/>
<path d="M512 1024H640V1152H512V1024Z"/>
<path d="M512 1152H640V1280H512V1152Z"/>
<path d="M512 1280H640V1408H512V1280Z"/>
<path d="M512 1408H640V1536H512V1408Z"/>
<path d="M512 1536H640V1664H512V1536Z"/>
<path d="M640 0H768V128H640V0Z"/>
<path d="M640 128H768V256H640V128Z"/>
<path d="M640 256H768V384H640V256Z"/>
<path d="M640 384H768V512H640V384Z"/>
<path d="M640 512H768V640H640V512Z"/>
<path d="M640 640H768V768H640V640Z"/>
<path d="M640 768H768V896H640V768Z"/>
<path d="M640 896H768V1024H640V896Z"/>
<path d="M640 1024H768V1152H640V1024Z"/>
<path d="M640 1152H768V1280H640V1152Z"/>
<path d="M640 1280H768V1408H640V1280Z"/>
<path d="M640 1408H768V1536H640V1408Z"/>
<path d="M640 1536H768V1664H640V1536Z"/>
<path d="M768 0H896V128H768V0Z"/>
<path d="M768 128H896V256H768V128Z"/>
<path d="M768 256H896V384H768V256Z"/>
<path d="M768 384H896V512H768V384Z"/>
<path d="M768 512H896V640H768V512Z"/>
<path d="M768 640H896V768H768V640Z"/>
<path d="M768 768H896V896H768V768Z"/>
<path d="M768 896H896V1024H768V896Z"/>
<path d="M768 1024H896V1152H768V1024Z"/>
<path d="M768 1152H896V1280H768V1152Z"/>
<path d="M768 1280H896V1408H768V1280Z"/>
<path d="M768 1408H896V1536H768V1408Z"/>
<path d="M768 1536H896V1664H768V1536Z"/>
<path d="M896 0H1024V128H896V0Z"/>
<path d="M896 128H1024V256H896V128Z"/>
<path d="M896 256H1024V384H896V256Z"/>
<path d="M896 384H1024V512H896V384Z"/>
<path d="M896 512H1024V640H896V512Z"/>
<path d="M896 640H1024V768H896V640Z"/>
<path d="M896 768H1024V896H896V768Z"/>
<path d="M896 896H1024V1024H896V896Z"/>
<path d="M896 1024H1024V1152H896V1024Z"/>
<path d="M896 1152H1024V1280H896V1152Z"/>
<path d="M896 1280H1024V1408H896V1280Z"/>
<path d="M896 1408H1024V1536H896V1408Z"/>
<path d="M896 1536H1024V1664H896V1536Z"/>
<path d="M1024 0H1152V128H1024V0Z"/>
<path d="M1024 128H1152V256H1024V128Z"/>
<path d="M1024 256H1152V384H1024V256Z"/>
<path d="M1024 384H1152V512H1024V384Z"/>
<path d="M1024 512H1152V640H1024V512Z"/>
<path d="M1024 640H1152V768H1024V640Z"/>
<path d="M1024 768H1152V896H1024V768Z"/>
<path d="M1024 896H1152V1024H1024V896Z"/>
<path d="M1024 1024H1152V1152H1024V1024Z"/>
<path d="M1024 1152H1152V1280H1024V1152Z"/>
<path d="M1024 1280H1152V1408H1024V1280Z"/>
<path d="M1024 1408H1152V1536H1024V1408Z"/>
<path d="M1024 1536H1152V1664H1024V1536Z"/>
<path d="M1152 0H1280V128H1152V0Z"/>
<path d="M1152 128H1280V256H1152V128Z"/>
<path d="M1152 256H1280V384H1152V256Z"/>
<path d="M1152 384H1280V512H1152V384Z"/>
<path d="M1152 512H1280V640H1152V512Z"/>
<path d="M1152 640H1280V768H1152V640Z"/>
<path d="M1152 768H1280V896H1152V768Z"/>
<path d="M1152 896H1280V1024H1152V896Z"/>
<path d="M1152 1024H1280V1152H1152V1024Z"/>
<path d="M1152 1152H1280V1280H1152V1152Z"/>
<path d="M1152 1280H1280V1408H1152V1280Z"/>
<path d="M1152 1408H1280V1536H1152V1408Z"/>
<path d="M1152 1536H1280V1664H1152V1536Z"/>
<path d="M1280 0H1408V128H1280V0Z"/>
<path d="M1280 128H1408V256H1280V128Z"/>
<path d="M1280 256H1408V384H1280V256Z"/>
<path d="M1280 384H1408V512H1280V384Z"/>
<path d="M1280 512H1408V640H1280V512Z"/>
<path d="M1280 640H1408V768H1280V640Z"/>
<path d="M1280 768H1408V896H1280V768Z"/>
<path d="M1280 896H1408V1024H1280V896Z"/>
<path d="M1280 1024H1408V1152H1280V1024Z"/>
<path d="M1280 1152H1408V1280H1280V1152Z"/>
<path d="M1280 1280H1408V1408H1280V1280Z"/>
<path d="M1280 1408H1408V1536H1280V1408Z"/>
<path d="M1280 1536H1408V1664H1280V1536Z"/>
<path d="M1408 0H1536V128H1408V0Z"/>
<path d="M1408 128H1536V256H1408V128Z"/>
<path d="M1408 256H1536V384H1408V256Z"/>
<path d="M1408 384H1536V512H1408V384Z"/>
<path d="M1408 512H1536V640H1408V512Z"/>
<path d="M1408 640H1536V768H1408V640Z"/>
<path d="M1408 768H1536V896H1408V768Z"/>
<path d="M1408 896H1536V1024H1408V896Z"/>
<path d="M1408 1024H1536V1152H1408V1024Z"/>
<path d="M1408 1152H1536V1280H1408V1152Z"/>
<path d="M1408 1280H1536V1408H1408V1280Z"/>
<path d="M1408 1408H1536V1536H1408V1408Z"/>
<path d="M1408 1536H1536V1664H1408V1536Z"/>
<path d="M1536 0H1664V128H1536V0Z"/>
<path d="M1536 128H1664V256H1536V128Z"/>
<path d="M1536 256H1664V384H1536V256Z"/>
<path d="M1536 384H1664V512H1536V384Z"/>
<path d="M1536 512H1664V640H1536V512Z"/>
<path d="M1536 640H1664V768H1536V640Z"/>
<path d="M1536 768H1664V896H1536V768Z"/>
<path d="M1536 896H1664V1024H1536V896Z"/>
<path d="M1536 1024H1664V1152H1536V1024Z"/>
<path d="M1536 1152H1664V1280H1536V1152Z"/>
<path d="M1536 1280H1664V1408H1536V1280Z"/>
<path d="M1536 1408H1664V1536H1536V1408Z"/>
<path d="M1536 1536H1664V1664H1536V1536Z"/>
<path d="M1664 0H1792V128H1664V0Z"/>
<path d="M1664 128H1792V256H1664V128Z"/>
<path d="M1664 256H1792V384H1664V256Z"/>
<path d="M1664 384H1792V512H1664V384Z"/>
<path d="M1664 512H1792V640H1664V512Z"/>
<path d="M1664 640H1792V768H1664V640Z"/>
<path d="M1664 768H1792V896H1664V768Z"/>
<path d="M1664 896H1792V1024H1664V896Z"/>
<path d="M1664 1024H1792V1152H1664V1024Z"/>
<path d="M1664 1152H1792V1280H1664V1152Z"/>
<path d="M1664 1280H1792V1408H1664V1280Z"/>
<path d="M1664 1408H1792V1536H1664V1408Z"/>
<path d="M1664 1536H1792V1664H1664V1536Z"/>
</mask>
<path d="M127.5 0V128H128.5V0H127.5ZM128 127.5H0V128.5H128V127.5ZM127.5 128V256H128.5V128H127.5ZM128 255.5H0V256.5H128V255.5ZM127.5 256V384H128.5V256H127.5ZM128 383.5H0V384.5H128V383.5ZM127.5 384V512H128.5V384H127.5ZM128 511.5H0V512.5H128V511.5ZM127.5 512V640H128.5V512H127.5ZM128 639.5H0V640.5H128V639.5ZM127.5 640V768H128.5V640H127.5ZM128 767.5H0V768.5H128V767.5ZM127.5 768V896H128.5V768H127.5ZM128 895.5H0V896.5H128V895.5ZM127.5 896V1024H128.5V896H127.5ZM128 1023.5H0V1024.5H128V1023.5ZM127.5 1024V1152H128.5V1024H127.5ZM128 1151.5H0V1152.5H128V1151.5ZM127.5 1152V1280H128.5V1152H127.5ZM128 1279.5H0V1280.5H128V1279.5ZM127.5 1280V1408H128.5V1280H127.5ZM128 1407.5H0V1408.5H128V1407.5ZM127.5 1408V1536H128.5V1408H127.5ZM128 1535.5H0V1536.5H128V1535.5ZM127.5 1536V1664H128.5V1536H127.5ZM255.5 0V128H256.5V0H255.5ZM256 127.5H128V128.5H256V127.5ZM255.5 128V256H256.5V128H255.5ZM256 255.5H128V256.5H256V255.5ZM255.5 256V384H256.5V256H255.5ZM256 383.5H128V384.5H256V383.5ZM255.5 384V512H256.5V384H255.5ZM256 511.5H128V512.5H256V511.5ZM255.5 512V640H256.5V512H255.5ZM256 639.5H128V640.5H256V639.5ZM255.5 640V768H256.5V640H255.5ZM256 767.5H128V768.5H256V767.5ZM255.5 768V896H256.5V768H255.5ZM256 895.5H128V896.5H256V895.5ZM255.5 896V1024H256.5V896H255.5ZM256 1023.5H128V1024.5H256V1023.5ZM255.5 1024V1152H256.5V1024H255.5ZM256 1151.5H128V1152.5H256V1151.5ZM255.5 1152V1280H256.5V1152H255.5ZM256 1279.5H128V1280.5H256V1279.5ZM255.5 1280V1408H256.5V1280H255.5ZM256 1407.5H128V1408.5H256V1407.5ZM255.5 1408V1536H256.5V1408H255.5ZM256 1535.5H128V1536.5H256V1535.5ZM255.5 1536V1664H256.5V1536H255.5ZM383.5 0V128H384.5V0H383.5ZM384 127.5H256V128.5H384V127.5ZM383.5 128V256H384.5V128H383.5ZM384 255.5H256V256.5H384V255.5ZM383.5 256V384H384.5V256H383.5ZM384 383.5H256V384.5H384V383.5ZM383.5 384V512H384.5V384H383.5ZM384 511.5H256V512.5H384V511.5ZM383.5 512V640H384.5V512H383.5ZM384 639.5H256V640.5H384V639.5ZM383.5 640V768H384.5V640H383.5ZM384 767.5H256V768.5H384V767.5ZM383.5 768V896H384.5V768H383.5ZM384 895.5H256V896.5H384V895.5ZM383.5 896V1024H384.5V896H383.5ZM384 1023.5H256V1024.5H384V1023.5ZM383.5 1024V1152H384.5V1024H383.5ZM384 1151.5H256V1152.5H384V1151.5ZM383.5 1152V1280H384.5V1152H383.5ZM384 1279.5H256V1280.5H384V1279.5ZM383.5 1280V1408H384.5V1280H383.5ZM384 1407.5H256V1408.5H384V1407.5ZM383.5 1408V1536H384.5V1408H383.5ZM384 1535.5H256V1536.5H384V1535.5ZM383.5 1536V1664H384.5V1536H383.5ZM511.5 0V128H512.5V0H511.5ZM512 127.5H384V128.5H512V127.5ZM511.5 128V256H512.5V128H511.5ZM512 255.5H384V256.5H512V255.5ZM511.5 256V384H512.5V256H511.5ZM512 383.5H384V384.5H512V383.5ZM511.5 384V512H512.5V384H511.5ZM512 511.5H384V512.5H512V511.5ZM511.5 512V640H512.5V512H511.5ZM512 639.5H384V640.5H512V639.5ZM511.5 640V768H512.5V640H511.5ZM512 767.5H384V768.5H512V767.5ZM511.5 768V896H512.5V768H511.5ZM512 895.5H384V896.5H512V895.5ZM511.5 896V1024H512.5V896H511.5ZM512 1023.5H384V1024.5H512V1023.5ZM511.5 1024V1152H512.5V1024H511.5ZM512 1151.5H384V1152.5H512V1151.5ZM511.5 1152V1280H512.5V1152H511.5ZM512 1279.5H384V1280.5H512V1279.5ZM511.5 1280V1408H512.5V1280H511.5ZM512 1407.5H384V1408.5H512V1407.5ZM511.5 1408V1536H512.5V1408H511.5ZM512 1535.5H384V1536.5H512V1535.5ZM511.5 1536V1664H512.5V1536H511.5ZM639.5 0V128H640.5V0H639.5ZM640 127.5H512V128.5H640V127.5ZM639.5 128V256H640.5V128H639.5ZM640 255.5H512V256.5H640V255.5ZM639.5 256V384H640.5V256H639.5ZM640 383.5H512V384.5H640V383.5ZM639.5 384V512H640.5V384H639.5ZM640 511.5H512V512.5H640V511.5ZM639.5 512V640H640.5V512H639.5ZM640 639.5H512V640.5H640V639.5ZM639.5 640V768H640.5V640H639.5ZM640 767.5H512V768.5H640V767.5ZM639.5 768V896H640.5V768H639.5ZM640 895.5H512V896.5H640V895.5ZM639.5 896V1024H640.5V896H639.5ZM640 1023.5H512V1024.5H640V1023.5ZM639.5 1024V1152H640.5V1024H639.5ZM640 1151.5H512V1152.5H640V1151.5ZM639.5 1152V1280H640.5V1152H639.5ZM640 1279.5H512V1280.5H640V1279.5ZM639.5 1280V1408H640.5V1280H639.5ZM640 1407.5H512V1408.5H640V1407.5ZM639.5 1408V1536H640.5V1408H639.5ZM640 1535.5H512V1536.5H640V1535.5ZM639.5 1536V1664H640.5V1536H639.5ZM767.5 0V128H768.5V0H767.5ZM768 127.5H640V128.5H768V127.5ZM767.5 128V256H768.5V128H767.5ZM768 255.5H640V256.5H768V255.5ZM767.5 256V384H768.5V256H767.5ZM768 383.5H640V384.5H768V383.5ZM767.5 384V512H768.5V384H767.5ZM768 511.5H640V512.5H768V511.5ZM767.5 512V640H768.5V512H767.5ZM768 639.5H640V640.5H768V639.5ZM767.5 640V768H768.5V640H767.5ZM768 767.5H640V768.5H768V767.5ZM767.5 768V896H768.5V768H767.5ZM768 895.5H640V896.5H768V895.5ZM767.5 896V1024H768.5V896H767.5ZM768 1023.5H640V1024.5H768V1023.5ZM767.5 1024V1152H768.5V1024H767.5ZM768 1151.5H640V1152.5H768V1151.5ZM767.5 1152V1280H768.5V1152H767.5ZM768 1279.5H640V1280.5H768V1279.5ZM767.5 1280V1408H768.5V1280H767.5ZM768 1407.5H640V1408.5H768V1407.5ZM767.5 1408V1536H768.5V1408H767.5ZM768 1535.5H640V1536.5H768V1535.5ZM767.5 1536V1664H768.5V1536H767.5ZM895.5 0V128H896.5V0H895.5ZM896 127.5H768V128.5H896V127.5ZM895.5 128V256H896.5V128H895.5ZM896 255.5H768V256.5H896V255.5ZM895.5 256V384H896.5V256H895.5ZM896 383.5H768V384.5H896V383.5ZM895.5 384V512H896.5V384H895.5ZM896 511.5H768V512.5H896V511.5ZM895.5 512V640H896.5V512H895.5ZM896 639.5H768V640.5H896V639.5ZM895.5 640V768H896.5V640H895.5ZM896 767.5H768V768.5H896V767.5ZM895.5 768V896H896.5V768H895.5ZM896 895.5H768V896.5H896V895.5ZM895.5 896V1024H896.5V896H895.5ZM896 1023.5H768V1024.5H896V1023.5ZM895.5 1024V1152H896.5V1024H895.5ZM896 1151.5H768V1152.5H896V1151.5ZM895.5 1152V1280H896.5V1152H895.5ZM896 1279.5H768V1280.5H896V1279.5ZM895.5 1280V1408H896.5V1280H895.5ZM896 1407.5H768V1408.5H896V1407.5ZM895.5 1408V1536H896.5V1408H895.5ZM896 1535.5H768V1536.5H896V1535.5ZM895.5 1536V1664H896.5V1536H895.5ZM1023.5 0V128H1024.5V0H1023.5ZM1024 127.5H896V128.5H1024V127.5ZM1023.5 128V256H1024.5V128H1023.5ZM1024 255.5H896V256.5H1024V255.5ZM1023.5 256V384H1024.5V256H1023.5ZM1024 383.5H896V384.5H1024V383.5ZM1023.5 384V512H1024.5V384H1023.5ZM1024 511.5H896V512.5H1024V511.5ZM1023.5 512V640H1024.5V512H1023.5ZM1024 639.5H896V640.5H1024V639.5ZM1023.5 640V768H1024.5V640H1023.5ZM1024 767.5H896V768.5H1024V767.5ZM1023.5 768V896H1024.5V768H1023.5ZM1024 895.5H896V896.5H1024V895.5ZM1023.5 896V1024H1024.5V896H1023.5ZM1024 1023.5H896V1024.5H1024V1023.5ZM1023.5 1024V1152H1024.5V1024H1023.5ZM1024 1151.5H896V1152.5H1024V1151.5ZM1023.5 1152V1280H1024.5V1152H1023.5ZM1024 1279.5H896V1280.5H1024V1279.5ZM1023.5 1280V1408H1024.5V1280H1023.5ZM1024 1407.5H896V1408.5H1024V1407.5ZM1023.5 1408V1536H1024.5V1408H1023.5ZM1024 1535.5H896V1536.5H1024V1535.5ZM1023.5 1536V1664H1024.5V1536H1023.5ZM1151.5 0V128H1152.5V0H1151.5ZM1152 127.5H1024V128.5H1152V127.5ZM1151.5 128V256H1152.5V128H1151.5ZM1152 255.5H1024V256.5H1152V255.5ZM1151.5 256V384H1152.5V256H1151.5ZM1152 383.5H1024V384.5H1152V383.5ZM1151.5 384V512H1152.5V384H1151.5ZM1152 511.5H1024V512.5H1152V511.5ZM1151.5 512V640H1152.5V512H1151.5ZM1152 639.5H1024V640.5H1152V639.5ZM1151.5 640V768H1152.5V640H1151.5ZM1152 767.5H1024V768.5H1152V767.5ZM1151.5 768V896H1152.5V768H1151.5ZM1152 895.5H1024V896.5H1152V895.5ZM1151.5 896V1024H1152.5V896H1151.5ZM1152 1023.5H1024V1024.5H1152V1023.5ZM1151.5 1024V1152H1152.5V1024H1151.5ZM1152 1151.5H1024V1152.5H1152V1151.5ZM1151.5 1152V1280H1152.5V1152H1151.5ZM1152 1279.5H1024V1280.5H1152V1279.5ZM1151.5 1280V1408H1152.5V1280H1151.5ZM1152 1407.5H1024V1408.5H1152V1407.5ZM1151.5 1408V1536H1152.5V1408H1151.5ZM1152 1535.5H1024V1536.5H1152V1535.5ZM1151.5 1536V1664H1152.5V1536H1151.5ZM1279.5 0V128H1280.5V0H1279.5ZM1280 127.5H1152V128.5H1280V127.5ZM1279.5 128V256H1280.5V128H1279.5ZM1280 255.5H1152V256.5H1280V255.5ZM1279.5 256V384H1280.5V256H1279.5ZM1280 383.5H1152V384.5H1280V383.5ZM1279.5 384V512H1280.5V384H1279.5ZM1280 511.5H1152V512.5H1280V511.5ZM1279.5 512V640H1280.5V512H1279.5ZM1280 639.5H1152V640.5H1280V639.5ZM1279.5 640V768H1280.5V640H1279.5ZM1280 767.5H1152V768.5H1280V767.5ZM1279.5 768V896H1280.5V768H1279.5ZM1280 895.5H1152V896.5H1280V895.5ZM1279.5 896V1024H1280.5V896H1279.5ZM1280 1023.5H1152V1024.5H1280V1023.5ZM1279.5 1024V1152H1280.5V1024H1279.5ZM1280 1151.5H1152V1152.5H1280V1151.5ZM1279.5 1152V1280H1280.5V1152H1279.5ZM1280 1279.5H1152V1280.5H1280V1279.5ZM1279.5 1280V1408H1280.5V1280H1279.5ZM1280 1407.5H1152V1408.5H1280V1407.5ZM1279.5 1408V1536H1280.5V1408H1279.5ZM1280 1535.5H1152V1536.5H1280V1535.5ZM1279.5 1536V1664H1280.5V1536H1279.5ZM1407.5 0V128H1408.5V0H1407.5ZM1408 127.5H1280V128.5H1408V127.5ZM1407.5 128V256H1408.5V128H1407.5ZM1408 255.5H1280V256.5H1408V255.5ZM1407.5 256V384H1408.5V256H1407.5ZM1408 383.5H1280V384.5H1408V383.5ZM1407.5 384V512H1408.5V384H1407.5ZM1408 511.5H1280V512.5H1408V511.5ZM1407.5 512V640H1408.5V512H1407.5ZM1408 639.5H1280V640.5H1408V639.5ZM1407.5 640V768H1408.5V640H1407.5ZM1408 767.5H1280V768.5H1408V767.5ZM1407.5 768V896H1408.5V768H1407.5ZM1408 895.5H1280V896.5H1408V895.5ZM1407.5 896V1024H1408.5V896H1407.5ZM1408 1023.5H1280V1024.5H1408V1023.5ZM1407.5 1024V1152H1408.5V1024H1407.5ZM1408 1151.5H1280V1152.5H1408V1151.5ZM1407.5 1152V1280H1408.5V1152H1407.5ZM1408 1279.5H1280V1280.5H1408V1279.5ZM1407.5 1280V1408H1408.5V1280H1407.5ZM1408 1407.5H1280V1408.5H1408V1407.5ZM1407.5 1408V1536H1408.5V1408H1407.5ZM1408 1535.5H1280V1536.5H1408V1535.5ZM1407.5 1536V1664H1408.5V1536H1407.5ZM1535.5 0V128H1536.5V0H1535.5ZM1536 127.5H1408V128.5H1536V127.5ZM1535.5 128V256H1536.5V128H1535.5ZM1536 255.5H1408V256.5H1536V255.5ZM1535.5 256V384H1536.5V256H1535.5ZM1536 383.5H1408V384.5H1536V383.5ZM1535.5 384V512H1536.5V384H1535.5ZM1536 511.5H1408V512.5H1536V511.5ZM1535.5 512V640H1536.5V512H1535.5ZM1536 639.5H1408V640.5H1536V639.5ZM1535.5 640V768H1536.5V640H1535.5ZM1536 767.5H1408V768.5H1536V767.5ZM1535.5 768V896H1536.5V768H1535.5ZM1536 895.5H1408V896.5H1536V895.5ZM1535.5 896V1024H1536.5V896H1535.5ZM1536 1023.5H1408V1024.5H1536V1023.5ZM1535.5 1024V1152H1536.5V1024H1535.5ZM1536 1151.5H1408V1152.5H1536V1151.5ZM1535.5 1152V1280H1536.5V1152H1535.5ZM1536 1279.5H1408V1280.5H1536V1279.5ZM1535.5 1280V1408H1536.5V1280H1535.5ZM1536 1407.5H1408V1408.5H1536V1407.5ZM1535.5 1408V1536H1536.5V1408H1535.5ZM1536 1535.5H1408V1536.5H1536V1535.5ZM1535.5 1536V1664H1536.5V1536H1535.5ZM1663.5 0V128H1664.5V0H1663.5ZM1664 127.5H1536V128.5H1664V127.5ZM1663.5 128V256H1664.5V128H1663.5ZM1664 255.5H1536V256.5H1664V255.5ZM1663.5 256V384H1664.5V256H1663.5ZM1664 383.5H1536V384.5H1664V383.5ZM1663.5 384V512H1664.5V384H1663.5ZM1664 511.5H1536V512.5H1664V511.5ZM1663.5 512V640H1664.5V512H1663.5ZM1664 639.5H1536V640.5H1664V639.5ZM1663.5 640V768H1664.5V640H1663.5ZM1664 767.5H1536V768.5H1664V767.5ZM1663.5 768V896H1664.5V768H1663.5ZM1664 895.5H1536V896.5H1664V895.5ZM1663.5 896V1024H1664.5V896H1663.5ZM1664 1023.5H1536V1024.5H1664V1023.5ZM1663.5 1024V1152H1664.5V1024H1663.5ZM1664 1151.5H1536V1152.5H1664V1151.5ZM1663.5 1152V1280H1664.5V1152H1663.5ZM1664 1279.5H1536V1280.5H1664V1279.5ZM1663.5 1280V1408H1664.5V1280H1663.5ZM1664 1407.5H1536V1408.5H1664V1407.5ZM1663.5 1408V1536H1664.5V1408H1663.5ZM1664 1535.5H1536V1536.5H1664V1535.5ZM1663.5 1536V1664H1664.5V1536H1663.5ZM1792 127.5H1664V128.5H1792V127.5ZM1792 255.5H1664V256.5H1792V255.5ZM1792 383.5H1664V384.5H1792V383.5ZM1792 511.5H1664V512.5H1792V511.5ZM1792 639.5H1664V640.5H1792V639.5ZM1792 767.5H1664V768.5H1792V767.5ZM1792 895.5H1664V896.5H1792V895.5ZM1792 1023.5H1664V1024.5H1792V1023.5ZM1792 1151.5H1664V1152.5H1792V1151.5ZM1792 1279.5H1664V1280.5H1792V1279.5ZM1792 1407.5H1664V1408.5H1792V1407.5ZM1792 1535.5H1664V1536.5H1792V1535.5ZM0 0V-1H-1V0H0ZM0 1664H-1V1665H0V1664ZM1792 0H1793V-1H1792V0ZM1792 1664V1665H1793V1664H1792ZM0 1H128V-1H0V1ZM1 128V0H-1V128H1ZM1 256V128H-1V256H1ZM1 384V256H-1V384H1ZM1 512V384H-1V512H1ZM1 640V512H-1V640H1ZM1 768V640H-1V768H1ZM1 896V768H-1V896H1ZM1 1024V896H-1V1024H1ZM1 1152V1024H-1V1152H1ZM1 1280V1152H-1V1280H1ZM1 1408V1280H-1V1408H1ZM1 1536V1408H-1V1536H1ZM128 1663H0V1665H128V1663ZM1 1664V1536H-1V1664H1ZM128 1H256V-1H128V1ZM256 1663H128V1665H256V1663ZM256 1H384V-1H256V1ZM384 1663H256V1665H384V1663ZM384 1H512V-1H384V1ZM512 1663H384V1665H512V1663ZM512 1H640V-1H512V1ZM640 1663H512V1665H640V1663ZM640 1H768V-1H640V1ZM768 1663H640V1665H768V1663ZM768 1H896V-1H768V1ZM896 1663H768V1665H896V1663ZM896 1H1024V-1H896V1ZM1024 1663H896V1665H1024V1663ZM1024 1H1152V-1H1024V1ZM1152 1663H1024V1665H1152V1663ZM1152 1H1280V-1H1152V1ZM1280 1663H1152V1665H1280V1663ZM1280 1H1408V-1H1280V1ZM1408 1663H1280V1665H1408V1663ZM1408 1H1536V-1H1408V1ZM1536 1663H1408V1665H1536V1663ZM1536 1H1664V-1H1536V1ZM1664 1663H1536V1665H1664V1663ZM1664 1H1792V-1H1664V1ZM1791 0V128H1793V0H1791ZM1791 128V256H1793V128H1791ZM1791 256V384H1793V256H1791ZM1791 384V512H1793V384H1791ZM1791 512V640H1793V512H1791ZM1791 640V768H1793V640H1791ZM1791 768V896H1793V768H1791ZM1791 896V1024H1793V896H1791ZM1791 1024V1152H1793V1024H1791ZM1791 1152V1280H1793V1152H1791ZM1791 1280V1408H1793V1280H1791ZM1791 1408V1536H1793V1408H1791ZM1791 1536V1664H1793V1536H1791ZM1792 1663H1664V1665H1792V1663Z" fill="black" mask="url(#path-1-inside-1)"/>
</mask>
<g mask="url(#mask0)">
<rect width="1792" height="1664" fill="url(#paint0_linear)"/>
</g>
<defs>
<linearGradient id="paint0_linear" x1="896" y1="0" x2="896" y2="1664" gradientUnits="userSpaceOnUse">
<stop stop-color="#ffffff" stop-opacity="0"/>
<stop offset="0.21875" stop-color="#ffffff" stop-opacity="0.075"/>
<stop offset="0.786458" stop-color="#ffffff" stop-opacity="0.075"/>
<stop offset="1" stop-color="#ffffff" stop-opacity="0"/>
</linearGradient>
</defs>
</svg>