<svg width="97" height="62" viewBox="0 0 97 62" fill="none" xmlns="http://www.w3.org/2000/svg">
<path d="M19 57.9607C27.3841 58.312 35.9716 59.0724 44.1565 56.7683C47.3413 55.8717 50.3377 54.5878 53.3133 53.1554C56.1638 51.7832 59.0285 50.448 61.6157 48.6082C65.2471 46.0258 68.9246 43.2879 72.1962 40.2612C76.7375 36.06 80.676 31.332 84.1471 26.2191C85.1878 24.6863 86.0778 22.7579 87.3951 21.4406" stroke="black" stroke-width="3" stroke-linecap="round" stroke-linejoin="round"/>
<path d="M70.2563 22.4016C72.8512 22.4016 76.0239 22.2756 78.4965 21.405C79.9313 20.8998 81.4565 20.9353 82.8747 20.5151C83.8142 20.2367 85.206 20.1863 86.185 20.1591C87.2076 20.1307 88.1671 19.6004 88.7567 20.6486C89.6679 22.2686 90.1689 23.9728 90.839 25.6852C91.3962 27.1092 92.0462 28.5225 92.4318 30.01C93.0586 32.4275 93.8178 34.782 94.6031 37.1378" stroke="black" stroke-width="3" stroke-linecap="round" stroke-linejoin="round"/>
<path d="M8.45589 35.2395C6.81924 35.735 4.86761 36.1108 3.43704 37.126C2.65162 37.6834 2.43884 38.6954 2.13784 39.5554C1.73846 40.6964 2.25385 42.4211 3.0811 43.2483C5.24028 45.4075 9.69147 45.9027 12.6205 45.1704" stroke="black" stroke-width="3" stroke-linecap="round" stroke-linejoin="round"/>
<path d="M13.5815 31.3953C14.1088 33.911 15.0388 36.13 15.7439 38.5587C15.9908 39.4091 16.1256 40.417 16.6249 41.166" stroke="black" stroke-width="3" stroke-linecap="round" stroke-linejoin="round"/>
<path d="M20.1487 35.0792C20.2993 35.8993 20.5911 36.9251 20.9496 37.642" stroke="black" stroke-width="3" stroke-linecap="round" stroke-linejoin="round"/>
<path d="M18.0664 29.3129C18.301 29.7137 18.7071 30.755 18.7071 29.7579C18.7071 29.396 18.7071 29.0341 18.7071 28.6722" stroke="black" stroke-width="2" stroke-linecap="round" stroke-linejoin="round"/>
<path d="M27.1965 25.9492C24.5091 26.5289 21.8305 29.0723 23.3879 31.8757C23.9982 32.9742 25.8217 33.3173 26.9474 33.3173C27.8886 33.3173 28.8665 33.1571 29.7594 33.1571" stroke="black" stroke-width="3" stroke-linecap="round" stroke-linejoin="round"/>
<path d="M32.8027 22.2651C33.6379 23.9354 34.721 25.2398 35.4456 26.9725C36.0438 28.4028 36.9526 29.7252 37.7682 31.0392C38.1179 31.6027 38.6791 32.2058 38.8894 32.8368" stroke="black" stroke-width="3" stroke-linecap="round" stroke-linejoin="round"/>
<path d="M35.5493 26L45.5493 28.5" stroke="black" stroke-width="3" stroke-linecap="round" stroke-linejoin="round"/>
<path d="M35.5493 27C35.913 26.6444 39.0342 21.5185 40.5493 19" stroke="black" stroke-width="3" stroke-linecap="round" stroke-linejoin="round"/>
<path d="M53.7858 20.8237C53.619 20.0452 53.3991 19.2794 53.2341 18.5011C53.1046 17.8906 53.2395 17.2607 53.1095 16.6591C52.9687 16.008 52.7356 14.6796 52.9938 14.034C53.09 13.7934 56.7784 16.7614 57.0516 17.1396C57.2725 17.4455 57.485 17.9838 57.5944 17.2998C57.7328 16.4349 57.63 15.4855 57.63 14.6124C57.63 13.4134 57.5632 12.0698 57.9859 10.9284C58.3905 9.83605 59.4422 10.9235 60.0326 11.2843C60.8216 11.7664 61.0012 12.4382 61.4742 13.2153C61.8158 13.7764 62.1511 14.9152 62.7556 15.2175" stroke="black" stroke-width="3" stroke-linecap="round" stroke-linejoin="round"/>
<path d="M68.4962 8.88757C70.3514 7.42989 71.8599 6.18181 71.8599 3.68185C71.8599 2.34976 69.2441 2 68.256 2C67.1054 2 66.1815 4.27771 65.9334 5.16793C65.2947 7.45966 65.1635 10.4323 67.8733 11.3703C69.0861 11.7901 70.8255 12.0247 72.1091 11.922C73.4529 11.8145 74.8414 10.9207 76.0245 10.3292" stroke="black" stroke-width="3" stroke-linecap="round" stroke-linejoin="round"/>
</svg>
