<svg width="24" height="24" viewBox="0 0 24 24" fill="none" xmlns="http://www.w3.org/2000/svg">
<path d="M20.5556 16.8C20.5556 18.864 19.7856 20.76 18.5267 22.2C19.0278 22.668 19.3333 23.292 19.3333 24H4.66667C4.66667 23.292 4.97222 22.668 5.47333 22.2C4.16128 20.696 3.44149 18.7803 3.44444 16.8H1C1 15.3 1.69667 13.968 2.78444 13.092L2.79667 13.068C3.75144 12.403 4.5303 11.5233 5.06823 10.5025C5.60617 9.4817 5.88755 8.34935 5.88889 7.2V6C5.88889 4.4087 6.53274 2.88258 7.67879 1.75736C8.82485 0.632141 10.3792 0 12 0C13.6208 0 15.1752 0.632141 16.3212 1.75736C17.4673 2.88258 18.1111 4.4087 18.1111 6V7.2C18.1111 9.6 19.3333 11.772 21.2033 13.068L21.2156 13.092C22.3033 13.968 23 15.3 23 16.8H20.5556V16.8ZM16.8889 16.8C16.8889 15.527 16.3738 14.3061 15.457 13.4059C14.5401 12.5057 13.2966 12 12 12C10.7034 12 9.45988 12.5057 8.54303 13.4059C7.62619 14.3061 7.11111 15.527 7.11111 16.8C7.11111 18.073 7.62619 19.2939 8.54303 20.1941C9.45988 21.0943 10.7034 21.6 12 21.6C13.2966 21.6 14.5401 21.0943 15.457 20.1941C16.3738 19.2939 16.8889 18.073 16.8889 16.8ZM9.55556 8.4L12 10.2L14.4444 8.4L12 6.6L9.55556 8.4V8.4ZM9.55556 3.6C9.2314 3.6 8.92053 3.72643 8.69131 3.95147C8.4621 4.17652 8.33333 4.48174 8.33333 4.8C8.33333 5.11826 8.4621 5.42348 8.69131 5.64853C8.92053 5.87357 9.2314 6 9.55556 6C9.87971 6 10.1906 5.87357 10.4198 5.64853C10.649 5.42348 10.7778 5.11826 10.7778 4.8C10.7778 4.48174 10.649 4.17652 10.4198 3.95147C10.1906 3.72643 9.87971 3.6 9.55556 3.6ZM14.4444 3.6C14.1203 3.6 13.8094 3.72643 13.5802 3.95147C13.351 4.17652 13.2222 4.48174 13.2222 4.8C13.2222 5.11826 13.351 5.42348 13.5802 5.64853C13.8094 5.87357 14.1203 6 14.4444 6C14.7686 6 15.0795 5.87357 15.3087 5.64853C15.5379 5.42348 15.6667 5.11826 15.6667 4.8C15.6667 4.48174 15.5379 4.17652 15.3087 3.95147C15.0795 3.72643 14.7686 3.6 14.4444 3.6Z" fill="black"/>
</svg>
