<svg width="24" height="24" viewBox="0 0 24 24" fill="none" xmlns="http://www.w3.org/2000/svg">
<path d="M16.3664 6.41553C14.4764 6.41553 13.6776 7.3174 12.3614 7.3174C11.0118 7.3174 9.98245 6.42209 8.34464 6.42209C6.74151 6.42209 5.03198 7.40084 3.94636 9.06818C2.42198 11.4194 2.68073 15.8477 5.14964 19.6202C6.03276 20.9707 7.21214 22.4852 8.75901 22.5016H8.78714C10.1315 22.5016 10.5309 21.6213 12.381 21.611H12.4092C14.2317 21.611 14.5973 22.4965 15.936 22.4965H15.9642C17.511 22.4801 18.7537 20.8019 19.6368 19.4566C20.2724 18.4891 20.5087 18.0035 20.9962 16.909C17.4248 15.5533 16.851 10.4904 20.3831 8.54928C19.3049 7.19928 17.7899 6.4174 16.3617 6.4174L16.3664 6.41553Z" fill="black"/>
<path d="M15.9486 1.5C14.8236 1.57641 13.5111 2.29266 12.7423 3.22781C12.0448 4.07531 11.4711 5.3325 11.6961 6.55172H11.7861C12.9842 6.55172 14.2105 5.83031 14.9267 4.90594C15.6167 4.02609 16.1398 2.77922 15.9486 1.5V1.5Z" fill="black"/>
</svg>
