<svg width="240" height="36" viewBox="0 0 240 36" fill="none" xmlns="http://www.w3.org/2000/svg">
<ellipse cx="18.1513" cy="18" rx="18.1513" ry="18" fill="currentColor"/>
<path d="M52 34.9091H66.1307C74.125 34.9091 78.0455 30.8352 78.0455 25.3977C78.0455 20.1136 74.2955 17.0114 70.5795 16.8239V16.483C73.9886 15.6818 76.6818 13.2955 76.6818 9.05114C76.6818 3.85227 72.9318 0 65.3636 0H52V34.9091ZM58.3239 29.625V19.3977H65.2955C69.1989 19.3977 71.6193 21.7841 71.6193 24.9034C71.6193 27.6818 69.7102 29.625 65.125 29.625H58.3239ZM58.3239 14.8466V5.21591H64.7159C68.4318 5.21591 70.358 7.17614 70.358 9.86932C70.358 12.9375 67.8693 14.8466 64.5795 14.8466H58.3239Z" fill="currentColor"/>
<path d="M83.2741 34.9091H89.4446V19.517C89.4446 16.1932 91.9503 13.8409 95.3423 13.8409C96.3821 13.8409 97.6776 14.0284 98.206 14.1989V8.52273C97.6435 8.42045 96.6719 8.35227 95.9901 8.35227C92.9901 8.35227 90.4844 10.0568 89.5298 13.0909H89.2571V8.72727H83.2741V34.9091Z" fill="currentColor"/>
<path d="M112.648 35.4205C120.318 35.4205 125.193 30.017 125.193 21.9205C125.193 13.8068 120.318 8.38636 112.648 8.38636C104.977 8.38636 100.102 13.8068 100.102 21.9205C100.102 30.017 104.977 35.4205 112.648 35.4205ZM112.682 30.4773C108.438 30.4773 106.358 26.6932 106.358 21.9034C106.358 17.1136 108.438 13.2784 112.682 13.2784C116.858 13.2784 118.938 17.1136 118.938 21.9034C118.938 26.6932 116.858 30.4773 112.682 30.4773Z" fill="currentColor"/>
<path d="M135.131 34.9091H141.574L146.483 17.2159H146.841L151.75 34.9091H158.176L165.591 8.72727H159.284L154.75 27.0341H154.494L149.79 8.72727H143.568L138.864 27.1364H138.625L134.023 8.72727H127.733L135.131 34.9091Z" fill="currentColor"/>
<path d="M190.592 15.6477C189.74 11.2159 186.195 8.38636 180.058 8.38636C173.751 8.38636 169.456 11.4886 169.473 16.3295C169.456 20.1477 171.808 22.6705 176.837 23.7102L181.303 24.6477C183.706 25.1761 184.831 26.1477 184.831 27.6307C184.831 29.4205 182.888 30.767 179.956 30.767C177.126 30.767 175.286 29.5398 174.757 27.1875L168.74 27.767C169.507 32.5739 173.547 35.4205 179.973 35.4205C186.518 35.4205 191.138 32.0284 191.155 27.0682C191.138 23.3352 188.734 21.0511 183.791 19.9773L179.325 19.0227C176.666 18.4261 175.609 17.5057 175.626 15.9886C175.609 14.2159 177.57 12.9886 180.143 12.9886C182.99 12.9886 184.49 14.5398 184.967 16.2614L190.592 15.6477Z" fill="currentColor"/>
<path d="M207.834 35.4205C213.936 35.4205 218.129 32.4375 219.22 27.8864L213.459 27.2386C212.624 29.4545 210.578 30.6136 207.919 30.6136C203.93 30.6136 201.288 27.9886 201.237 23.5057H219.476V21.6136C219.476 12.4261 213.953 8.38636 207.51 8.38636C200.01 8.38636 195.118 13.892 195.118 21.9716C195.118 30.1875 199.942 35.4205 207.834 35.4205ZM201.254 19.3466C201.442 16.0057 203.913 13.1932 207.595 13.1932C211.141 13.1932 213.527 15.7841 213.561 19.3466H201.254Z" fill="currentColor"/>
<path d="M224.696 34.9091H230.866V19.517C230.866 16.1932 233.372 13.8409 236.764 13.8409C237.804 13.8409 239.099 14.0284 239.628 14.1989V8.52273C239.065 8.42045 238.094 8.35227 237.412 8.35227C234.412 8.35227 231.906 10.0568 230.952 13.0909H230.679V8.72727H224.696V34.9091Z" fill="currentColor"/>
</svg>