<svg width="124" height="36" viewBox="0 0 124 36" fill="none" xmlns="http://www.w3.org/2000/svg">
<g clip-path="url(#clip0_107_25)">
<g clip-path="url(#clip1_107_25)">
<path fill-rule="evenodd" clip-rule="evenodd" d="M16.255 0.247215C17.1672 0.678115 17.75 1.60232 17.75 2.61821V33.3818C17.75 34.8278 16.5876 36 15.1538 36C13.72 36 12.5577 34.8278 12.5577 33.3818V8.20814L5.13324 14.4477C4.03174 15.3735 2.39469 15.2234 1.47679 14.1125C0.558896 13.0016 0.707711 11.3507 1.8092 10.425L13.4919 0.60687C14.2658 -0.043493 15.3427 -0.183683 16.255 0.247215Z" fill="currentColor"/>
</g>
<path d="M66.0795 17.9318C66.0795 6.64773 59.1932 0 50.0398 0C40.8693 0 34 6.64773 34 17.9318C34 29.1989 40.8693 35.8636 50.0398 35.8636C59.1932 35.8636 66.0795 29.2159 66.0795 17.9318ZM59.7216 17.9318C59.7216 25.875 55.733 30.1875 50.0398 30.1875C44.3636 30.1875 40.358 25.875 40.358 17.9318C40.358 9.98864 44.3636 5.67614 50.0398 5.67614C55.733 5.67614 59.7216 9.98864 59.7216 17.9318Z" fill="currentColor"/>
<path d="M77.956 20.0455C77.956 16.2614 80.2401 14.0795 83.4957 14.0795C86.6832 14.0795 88.5923 16.1761 88.5923 19.6705V35.3864H94.7628V18.7159C94.7798 12.4432 91.2003 8.86364 85.7969 8.86364C81.8764 8.86364 79.1832 10.7386 77.9901 13.6534H77.6832V9.20455H71.7855V35.3864H77.956V20.0455Z" fill="currentColor"/>
<path d="M112.626 35.8977C118.729 35.8977 122.922 32.9148 124.013 28.3636L118.251 27.7159C117.416 29.9318 115.371 31.0909 112.712 31.0909C108.723 31.0909 106.081 28.4659 106.03 23.983H124.268V22.0909C124.268 12.9034 118.746 8.86364 112.303 8.86364C104.803 8.86364 99.9105 14.3693 99.9105 22.4489C99.9105 30.6648 104.734 35.8977 112.626 35.8977ZM106.047 19.8239C106.234 16.483 108.706 13.6705 112.388 13.6705C115.933 13.6705 118.32 16.2614 118.354 19.8239H106.047Z" fill="currentColor"/>
</g>
<defs>
<clipPath id="clip0_107_25">
<rect width="124" height="36" fill="currentColor"/>
</clipPath>
<clipPath id="clip1_107_25">
<rect width="36" height="36" fill="currentColor" transform="translate(-7)"/>
</clipPath>
</defs>
</svg>