<svg width="257" height="36" viewBox="0 0 257 36" fill="none" xmlns="http://www.w3.org/2000/svg">
<path d="M15.6709 15.2975H11.3289C11.1569 15.2975 11.0354 15.137 11.0898 14.9815L13.2608 8.7783C13.3374 8.55942 13.6624 8.55942 13.739 8.7783L15.91 14.9815C15.9644 15.137 15.8429 15.2975 15.6709 15.2975Z" fill="currentColor"/>
<path fill-rule="evenodd" clip-rule="evenodd" d="M6.75 0C3.02209 0 0 3.02209 0 6.75V20.25C0 23.978 3.02209 27 6.75 27H20.25C23.978 27 27 23.978 27 20.25V6.75C27 3.02209 23.978 0 20.25 0H6.75ZM6.85154 22.5C5.19912 22.5 4.06307 20.9182 4.66198 19.4514L9.776 6.92633C10.0144 6.34255 10.4003 5.82383 10.8997 5.4162C12.396 4.19461 14.604 4.19461 16.1003 5.4162C16.5997 5.82383 16.9856 6.34255 17.224 6.92633L22.338 19.4514C22.9369 20.9182 21.8009 22.5 20.1485 22.5C19.1796 22.5 18.3101 21.9335 17.9589 21.0734L16.9108 18.5065C16.8807 18.4328 16.8063 18.3843 16.7233 18.3843H10.2767C10.1937 18.3843 10.1193 18.4328 10.0892 18.5065L9.04109 21.0734C8.68993 21.9335 7.82042 22.5 6.85154 22.5Z" fill="currentColor"/>
<path opacity="0.5" d="M27 9H29.25C32.978 9 36 12.0221 36 15.75V29.25C36 32.978 32.978 36 29.25 36H15.75C12.0221 36 9 32.978 9 29.25V27H19.0666C17.8838 27.7072 16.5645 28.3014 15.1119 28.7888C14.3648 29.0394 14.0837 30.0305 14.4933 30.7037C14.78 31.1751 15.3254 31.3756 15.8452 31.1911C18.0163 30.4202 19.9277 29.4469 21.6061 28.226C22.0441 27.9072 22.6435 27.9166 23.0744 28.2449C24.7441 29.5171 26.7194 30.5194 29.0572 31.2138C29.5382 31.3569 30.0175 31.1769 30.2866 30.7534C30.7424 30.0364 30.4263 28.904 29.6181 28.6423C27.9832 28.1131 26.5286 27.4122 25.2414 26.5615C24.7651 26.2469 24.6562 25.6309 24.905 25.1381C25.5679 24.5065 26.1025 23.7418 26.4658 22.8863C27.0947 21.8523 27.6523 20.7277 28.1378 19.5022C28.3124 19.0617 28.7334 18.7636 29.2072 18.7636H30.375C30.9962 18.7636 31.5 18.2531 31.5 17.6318C31.5 17.0105 30.9962 16.5 30.375 16.5H27V9Z" fill="currentColor"/>
<path d="M42.9092 5.39208H53.699V35H59.9717V5.39208H70.7615V0.0909424H42.9092V5.39208Z" fill="currentColor"/>
<path d="M73.1393 35H79.3097V19.608C79.3097 16.2841 81.8154 13.9319 85.2075 13.9319C86.2472 13.9319 87.5427 14.1194 88.0711 14.2898V8.61367C87.5086 8.5114 86.537 8.44322 85.8552 8.44322C82.8552 8.44322 80.3495 10.1478 79.395 13.1819H79.1222V8.81822H73.1393V35Z" fill="currentColor"/>
<path d="M99.189 35.5284C103.297 35.5284 105.752 33.6023 106.877 31.4034H107.081V35H113.013V17.4773C113.013 10.5569 107.371 8.47731 102.377 8.47731C96.8708 8.47731 92.6436 10.9318 91.2799 15.7046L97.0413 16.5228C97.6549 14.733 99.3936 13.1989 102.411 13.1989C105.274 13.1989 106.842 14.6648 106.842 17.2387V17.3409C106.842 19.1137 104.984 19.1989 100.365 19.6932C95.2856 20.2387 90.4276 21.7557 90.4276 27.6534C90.4276 32.8012 94.1947 35.5284 99.189 35.5284ZM100.791 30.9944C98.2174 30.9944 96.3765 29.8182 96.3765 27.5512C96.3765 25.1819 98.439 24.1932 101.2 23.8012C102.82 23.5796 106.058 23.1705 106.859 22.5228V25.608C106.859 28.5228 104.507 30.9944 100.791 30.9944Z" fill="currentColor"/>
<path d="M125.388 19.6591C125.388 15.875 127.672 13.6932 130.928 13.6932C134.115 13.6932 136.024 15.7898 136.024 19.2841V35H142.195V18.3296C142.212 12.0569 138.632 8.47731 133.229 8.47731C129.308 8.47731 126.615 10.3523 125.422 13.2671H125.115V8.81822H119.217V35H125.388V19.6591Z" fill="currentColor"/>
<path d="M169.161 15.7387C168.308 11.3069 164.763 8.47731 158.627 8.47731C152.32 8.47731 148.024 11.5796 148.041 16.4205C148.024 20.2387 150.377 22.7614 155.405 23.8012L159.871 24.7387C162.274 25.2671 163.399 26.2387 163.399 27.7216C163.399 29.5114 161.456 30.858 158.524 30.858C155.695 30.858 153.854 29.6307 153.325 27.2784L147.308 27.858C148.075 32.6648 152.115 35.5114 158.541 35.5114C165.087 35.5114 169.706 32.1194 169.723 27.1591C169.706 23.4262 167.303 21.1421 162.359 20.0682L157.894 19.1137C155.234 18.5171 154.178 17.5966 154.195 16.0796C154.178 14.3069 156.138 13.0796 158.712 13.0796C161.558 13.0796 163.058 14.6307 163.536 16.3523L169.161 15.7387Z" fill="currentColor"/>
<path d="M180.982 0.0909424H174.811V35H180.982V0.0909424Z" fill="currentColor"/>
<path d="M194.861 35.5284C198.969 35.5284 201.423 33.6023 202.548 31.4034H202.753V35H208.685V17.4773C208.685 10.5569 203.043 8.47731 198.048 8.47731C192.543 8.47731 188.315 10.9318 186.952 15.7046L192.713 16.5228C193.327 14.733 195.065 13.1989 198.082 13.1989C200.946 13.1989 202.514 14.6648 202.514 17.2387V17.3409C202.514 19.1137 200.656 19.1989 196.037 19.6932C190.957 20.2387 186.1 21.7557 186.1 27.6534C186.1 32.8012 189.867 35.5284 194.861 35.5284ZM196.463 30.9944C193.889 30.9944 192.048 29.8182 192.048 27.5512C192.048 25.1819 194.111 24.1932 196.872 23.8012C198.492 23.5796 201.73 23.1705 202.531 22.5228V25.608C202.531 28.5228 200.179 30.9944 196.463 30.9944Z" fill="currentColor"/>
<path d="M227.963 8.81822H222.798V2.54549H216.628V8.81822H212.912V13.5909H216.628V28.1478C216.594 33.0739 220.173 35.4944 224.81 35.358C226.565 35.3069 227.776 34.9659 228.44 34.7444L227.401 29.9205C227.06 30.0057 226.361 30.1591 225.594 30.1591C224.043 30.1591 222.798 29.6137 222.798 27.125V13.5909H227.963V8.81822Z" fill="currentColor"/>
<path d="M244.433 35.5114C250.536 35.5114 254.729 32.5284 255.82 27.9773L250.058 27.3296C249.223 29.5455 247.178 30.7046 244.519 30.7046C240.53 30.7046 237.888 28.0796 237.837 23.5966H256.075V21.7046C256.075 12.5171 250.553 8.47731 244.109 8.47731C236.609 8.47731 231.717 13.983 231.717 22.0625C231.717 30.2784 236.541 35.5114 244.433 35.5114ZM237.854 19.4375C238.041 16.0966 240.513 13.2841 244.195 13.2841C247.74 13.2841 250.127 15.875 250.161 19.4375H237.854Z" fill="currentColor"/>
</svg>