<svg width="16" height="16" viewBox="0 0 16 16" fill="none" xmlns="http://www.w3.org/2000/svg">
<g clip-path="url(#clip0)">
<path fill-rule="evenodd" clip-rule="evenodd" d="M8.70711 0.292893C9.09763 0.683417 9.09763 1.31658 8.70711 1.70711L4.09706 6.31716C3.88287 6.53135 3.77577 6.63844 3.76854 6.73039C3.76226 6.81016 3.79455 6.88813 3.8554 6.9401C3.92554 7 4.07699 7 4.3799 7L15 7C15.5523 7 16 7.44772 16 8C16 8.55228 15.5523 9 15 9L4.3799 9C4.07699 9 3.92554 9 3.8554 9.0599C3.79455 9.11187 3.76226 9.18984 3.76854 9.26962C3.77577 9.36156 3.88287 9.46865 4.09706 9.68284L8.70711 14.2929C9.09763 14.6834 9.09763 15.3166 8.70711 15.7071C8.31658 16.0976 7.68342 16.0976 7.29289 15.7071L0.292893 8.70711C-0.0976311 8.31658 -0.0976311 7.68342 0.292893 7.29289L7.29289 0.292893C7.68342 -0.0976311 8.31658 -0.0976311 8.70711 0.292893Z" fill="black"/>
</g>
<defs>
<clipPath id="clip0">
<rect width="16" height="16" fill="white"/>
</clipPath>
</defs>
</svg>
