<svg width="186" height="20" viewBox="0 0 186 20" fill="none" xmlns="http://www.w3.org/2000/svg">
<circle cx="10" cy="10" r="10" fill="black"/>
<path d="M79 19.9998H87.0695C91.6348 19.9998 93.8736 17.6659 93.8736 14.5507C93.8736 11.5233 91.7321 9.74601 89.6101 9.63859V9.44328C91.5569 8.9843 93.0949 7.61712 93.0949 5.1855C93.0949 2.20701 90.9534 0 86.6315 0H79V19.9998ZM82.6113 16.9725V11.1132H86.5925C88.8216 11.1132 90.2039 12.4804 90.2039 14.2675C90.2039 15.8592 89.1137 16.9725 86.4952 16.9725H82.6113ZM82.6113 8.50579V2.98825H86.2616C88.3836 2.98825 89.4835 4.11129 89.4835 5.65425C89.4835 7.41204 88.0624 8.50579 86.1837 8.50579H82.6113Z" fill="black"/>
<path d="M96.8621 19.9951H100.386V11.1768C100.386 9.27256 101.817 7.92491 103.754 7.92491C104.348 7.92491 105.087 8.03233 105.389 8.12999V4.87806C105.068 4.81947 104.513 4.78041 104.124 4.78041C102.411 4.78041 100.98 5.75696 100.435 7.49523H100.279V4.99525H96.8621V19.9951Z" fill="black"/>
<path d="M113.486 20C117.867 20 120.651 16.9043 120.651 12.2657C120.651 7.6173 117.867 4.51185 113.486 4.51185C109.106 4.51185 106.322 7.6173 106.322 12.2657C106.322 16.9043 109.106 20 113.486 20ZM113.506 17.168C111.082 17.168 109.894 15 109.894 12.2559C109.894 9.51181 111.082 7.31456 113.506 7.31456C115.891 7.31456 117.078 9.51181 117.078 12.2559C117.078 15 115.891 17.168 113.506 17.168Z" fill="black"/>
<path d="M126.547 20H130.227L133.03 9.86337H133.235L136.038 20H139.708L143.942 5.00013H140.341L137.751 15.4883H137.605L134.919 5.00013H131.366L128.679 15.5469H128.543L125.915 5.00013H122.323L126.547 20Z" fill="black"/>
<path d="M157.998 8.67197C157.511 6.13293 155.486 4.51185 151.982 4.51185C148.38 4.51185 145.927 6.28918 145.937 9.0626C145.927 11.2501 147.271 12.6954 150.142 13.2911L152.693 13.8282C154.065 14.1309 154.708 14.6875 154.708 15.5371C154.708 16.5625 153.598 17.334 151.924 17.334C150.308 17.334 149.256 16.6309 148.955 15.2832L145.519 15.6153C145.957 18.3692 148.264 20 151.933 20C155.671 20 158.309 18.0567 158.319 15.2149C158.309 13.0762 156.937 11.7677 154.114 11.1524L151.563 10.6056C150.045 10.2638 149.441 9.73642 149.451 8.86728C149.441 7.85167 150.561 7.14855 152.031 7.14855C153.656 7.14855 154.513 8.03721 154.785 9.02353L157.998 8.67197Z" fill="black"/>
<path d="M167.844 20C171.328 20 173.723 18.291 174.346 15.6836L171.056 15.3125C170.579 16.5821 169.411 17.2461 167.892 17.2461C165.615 17.2461 164.106 15.7422 164.077 13.1739H174.492V12.0899C174.492 6.82629 171.338 4.51185 167.659 4.51185C163.376 4.51185 160.582 7.66612 160.582 12.295C160.582 17.002 163.337 20 167.844 20ZM164.086 10.7911C164.193 8.87705 165.605 7.26574 167.707 7.26574C169.732 7.26574 171.095 8.7501 171.114 10.7911H164.086Z" fill="black"/>
<path d="M177.473 19.707H180.997V10.8888C180.997 8.98447 182.428 7.63683 184.365 7.63683C184.958 7.63683 185.698 7.74425 186 7.8419V4.58998C185.679 4.53138 185.124 4.49232 184.735 4.49232C183.021 4.49232 181.59 5.46888 181.045 7.20714H180.89V4.70717H177.473V19.707Z" fill="black"/>
<path d="M32.5836 19.9998C38.5032 19.9998 42.0132 16.2303 42.0132 9.98039C42.0132 3.74997 38.5032 0 32.7165 0H26V19.9998H32.5836ZM29.5195 16.8651V3.13474H32.5172C36.4636 3.13474 38.5222 5.40035 38.5222 9.98039C38.5222 14.58 36.4636 16.8651 32.4129 16.8651H29.5195Z" fill="black"/>
<path d="M51.5614 20C55.8303 20 58.5435 16.9043 58.5435 12.2657C58.5435 7.61729 55.8303 4.51185 51.5614 4.51185C47.2925 4.51185 44.5793 7.61729 44.5793 12.2657C44.5793 16.9043 47.2925 20 51.5614 20ZM51.5804 17.168C49.2182 17.168 48.0609 15 48.0609 12.2559C48.0609 9.5118 49.2182 7.31456 51.5804 7.31456C53.9046 7.31456 55.0619 9.5118 55.0619 12.2559C55.0619 15 53.9046 17.168 51.5804 17.168Z" fill="black"/>
<path d="M68.7344 4.70716H65.86V1.11344H62.4258V4.70716H60.3578V7.44151H62.4258V15.7813C62.4069 18.6035 64.399 19.9902 66.9794 19.9121C67.9565 19.8828 68.63 19.6875 69 19.5605L68.4213 16.7969C68.2316 16.8457 67.8426 16.9336 67.4158 16.9336C66.5525 16.9336 65.86 16.6211 65.86 15.1954V7.44151H68.7344V4.70716Z" fill="black"/>
</svg>
