<svg width="16" height="16" viewBox="0 0 16 16" fill="none" xmlns="http://www.w3.org/2000/svg">
<g clip-path="url(#clip0)">
<path fill-rule="evenodd" clip-rule="evenodd" d="M7.29289 0.292893C6.90237 0.683417 6.90237 1.31658 7.29289 1.70711L11.9029 6.31716C12.1171 6.53135 12.2242 6.63844 12.2315 6.73039C12.2377 6.81016 12.2054 6.88813 12.1446 6.9401C12.0745 7 11.923 7 11.6201 7L1 7C0.447715 7 0 7.44772 0 8C0 8.55228 0.447715 9 1 9L11.6201 9C11.923 9 12.0745 9 12.1446 9.0599C12.2054 9.11187 12.2377 9.18984 12.2315 9.26962C12.2242 9.36156 12.1171 9.46865 11.9029 9.68284L7.29289 14.2929C6.90237 14.6834 6.90237 15.3166 7.29289 15.7071C7.68342 16.0976 8.31658 16.0976 8.70711 15.7071L15.7071 8.70711C16.0976 8.31658 16.0976 7.68342 15.7071 7.29289L8.70711 0.292893C8.31658 -0.0976311 7.68342 -0.0976311 7.29289 0.292893Z" fill="black"/>
</g>
<defs>
<clipPath id="clip0">
<rect width="16" height="16" fill="white" transform="matrix(-1 0 0 1 16 0)"/>
</clipPath>
</defs>
</svg>
