<svg width="24" height="24" viewBox="0 0 24 24" fill="none" xmlns="http://www.w3.org/2000/svg">
<path fill-rule="evenodd" clip-rule="evenodd" d="M0.999245 9.03954V21C0.999245 22.6569 2.23047 24 3.74925 24H20.2493C21.7681 24 22.9993 22.6569 22.9993 21V9.03954C22.9993 9.02575 22.9996 9.01208 22.9999 8.99839C23.0001 8.98593 23.0004 8.97346 23.0005 8.9609C23.001 8.80497 22.9632 8.21543 22.3891 7.79242L12.8891 0.792416C12.3599 0.402528 11.6386 0.402528 11.1095 0.792416L1.60945 7.79242C1.03536 8.21543 0.997475 8.80497 0.998053 8.9609C0.998099 8.97348 0.998373 8.98595 0.998646 8.99843C0.998946 9.0121 0.999245 9.02576 0.999245 9.03954ZM3.74925 10.7589C3.74925 10.45 3.89198 10.1585 4.13594 9.96907L11.386 4.33946C11.7468 4.05925 12.2517 4.05925 12.6126 4.33946L19.8626 9.96907C20.1065 10.1585 20.2493 10.45 20.2493 10.7589V20C20.2493 20.5523 19.8016 21 19.2493 21H17V13C17 11.3431 15.6569 10 14 10H10C8.34315 10 7 11.3431 7 13V21H4.74925C4.19696 21 3.74925 20.5523 3.74925 20V10.7589ZM10 21H14V14C14 13.4477 13.5523 13 13 13H11C10.4477 13 10 13.4477 10 14V21Z" fill="black"/>
</svg>
