<svg width="24" height="24" viewBox="0 0 24 24" fill="none" xmlns="http://www.w3.org/2000/svg">
<path d="M0 4.5C0 3.67157 0.671573 3 1.5 3H22.5C23.3284 3 24 3.67157 24 4.5C24 5.32843 23.3284 6 22.5 6H1.5C0.671573 6 0 5.32843 0 4.5Z" fill="black"/>
<path d="M0 12C0 11.1716 0.671573 10.5 1.5 10.5H22.5C23.3284 10.5 24 11.1716 24 12C24 12.8284 23.3284 13.5 22.5 13.5H1.5C0.671573 13.5 0 12.8284 0 12Z" fill="black"/>
<path d="M0 19.5C0 18.6716 0.671573 18 1.5 18H22.5C23.3284 18 24 18.6716 24 19.5C24 20.3284 23.3284 21 22.5 21H1.5C0.671573 21 0 20.3284 0 19.5Z" fill="black"/>
</svg>
