<svg width="28" height="28" viewBox="0 0 28 28" fill="none" xmlns="http://www.w3.org/2000/svg">
<path fill-rule="evenodd" clip-rule="evenodd" d="M13.4097 0.119664C13.5987 0.040369 13.7987 1.76237e-05 14 5.72393e-09C14.2012 1.75506e-05 14.4013 0.040369 14.5903 0.119664L23.4242 3.76845C24.0712 4.03572 24.5 4.71708 24.5 5.47827V14C24.5 18.4674 21.8223 21.9744 19.5128 24.2004C18.3232 25.3469 17.1414 26.2409 16.2603 26.8474C15.818 27.1519 15.447 27.387 15.1829 27.548C15.0507 27.6286 14.9449 27.6909 14.87 27.7341C14.8324 27.7558 14.8027 27.7728 14.7811 27.7851L14.7548 27.7998L14.7523 27.8012C14.2859 28.0629 13.7314 28.0675 13.2586 27.8071L13.2534 27.8043L13.2477 27.8012L13.2452 27.7998L13.2189 27.7851C13.1973 27.7728 13.1676 27.7558 13.13 27.7341C13.0551 27.6909 12.9493 27.6286 12.8171 27.548C12.553 27.387 12.182 27.1519 11.7397 26.8474C10.8586 26.2409 9.67683 25.3469 8.48722 24.2004C6.17764 21.9744 3.5 18.4674 3.5 14V5.47827C3.5 4.71708 3.92868 4.03572 4.57577 3.76845L13.4097 0.119664ZM14 5.72393e-09C13.7987 1.76237e-05 13.5987 0.040369 13.4097 0.119664L13.4178 0.116279C13.6066 0.0383131 13.8038 -1.71017e-05 14 5.72393e-09ZM15.6579 22.9014C16.1874 22.4865 16.7595 22.001 17.3293 21.4518C19.4407 19.4167 21.1842 16.837 21.1842 14V6.74374L15.6579 4.46113V22.9014Z" fill="#B132FF"/>
</svg>
