<svg width="24" height="24" viewBox="0 0 24 24" fill="none" xmlns="http://www.w3.org/2000/svg">
<path d="M20.223 0C21.6293 0 22.7618 1.137 22.8285 2.4765V24L20.1525 21.7267L18.684 20.391L17.0783 18.9923L17.7465 21.1957H3.71101C2.30851 21.1957 1.17226 20.133 1.17226 18.7192V2.481C1.17226 1.1415 2.30926 0.0045 3.71551 0.0045H20.2155L20.223 0ZM14.1053 5.6835H14.0738L13.8705 5.883C15.945 6.4845 16.9485 7.422 16.9485 7.422C15.6128 6.75375 14.4053 6.41775 13.2023 6.28125C12.3353 6.1485 11.4638 6.219 10.7295 6.28125H10.5263C10.0575 6.28125 9.05776 6.4845 7.71751 7.01925C7.25251 7.2225 6.98326 7.35525 6.98326 7.35525C6.98326 7.35525 7.98301 6.351 10.194 5.81625L10.0575 5.6835C10.0575 5.6835 8.38576 5.61675 6.58126 6.95325C6.58126 6.95325 4.77676 10.098 4.77676 13.9725C4.77676 13.9725 5.77651 15.711 8.51926 15.777C8.51926 15.777 8.92126 15.246 9.32401 14.7772C7.78501 14.3085 7.18351 13.371 7.18351 13.371C7.18351 13.371 7.32001 13.4377 7.51951 13.5705H7.57801C7.60951 13.5705 7.62526 13.5862 7.64026 13.602V13.6095C7.65601 13.6252 7.67176 13.6365 7.69876 13.6365C8.03101 13.773 8.35876 13.9058 8.62876 14.0385C9.09751 14.238 9.69526 14.4405 10.4295 14.574C11.3595 14.7105 12.4253 14.7735 13.6403 14.574C14.238 14.4375 14.8395 14.3085 15.441 14.0385C15.828 13.839 16.308 13.6402 16.8353 13.3005C16.8353 13.3005 16.2375 14.238 14.6318 14.7067C14.9603 15.1717 15.4245 15.7065 15.4245 15.7065C18.1703 15.6442 19.2368 13.9057 19.2953 13.98C19.2953 10.1093 17.4788 6.96075 17.4788 6.96075C15.846 5.74575 14.3145 5.69925 14.0453 5.69925L14.1 5.67975L14.1053 5.6835ZM14.2733 10.098C14.9768 10.098 15.543 10.6958 15.543 11.43C15.543 12.1725 14.973 12.7695 14.2733 12.7695C13.5698 12.7695 13.0035 12.1718 13.0035 11.4375C13.0035 10.695 13.5735 10.098 14.2733 10.098ZM9.73051 10.098C10.4295 10.098 10.9965 10.6958 10.9965 11.43C10.9965 12.1725 10.4265 12.7695 9.72676 12.7695C9.02326 12.7695 8.45326 12.1718 8.45326 11.4375C8.45326 10.695 9.02326 10.098 9.72676 10.098H9.73051Z" fill="black"/>
</svg>