<svg xmlns="http://www.w3.org/2000/svg" width="24" height="24" viewBox="0 0 24 24" fill="none">
<path d="M4 0V2H2V22H4V24H0V0H4Z" fill="black"/>
<path d="M20 0V2H22V22H20V24H24V0H20Z" fill="black"/>
<path d="M7.37228 8.58136V7.26278L5 7.26534V17H7.51443V11.3575C7.51443 10.8776 7.57707 10.4915 7.70636 10.1991C7.81427 9.93804 7.97589 9.70592 8.17937 9.5198C8.35926 9.36382 8.5512 9.25728 8.74393 9.20017C8.93667 9.14221 9.09488 9.11579 9.21614 9.11579C9.61768 9.11579 9.92365 9.19079 10.1284 9.33313C10.332 9.46659 10.4879 9.66809 10.5717 9.90591C10.6669 10.1542 10.7194 10.4187 10.7267 10.6867C10.7428 10.9662 10.7468 11.2501 10.7468 11.539V16.9949H13.2612V11.5748C13.2651 11.2758 13.2873 10.9774 13.3279 10.6815C13.3626 10.404 13.4465 10.1359 13.5752 9.89142C13.6992 9.65936 13.8759 9.46392 14.0892 9.32291C14.3068 9.18142 14.5911 9.11067 14.9469 9.11067C15.2986 9.11067 15.5829 9.17204 15.7877 9.3016C15.9884 9.41615 16.1518 9.59231 16.2567 9.80704C16.368 10.0406 16.4333 10.2958 16.4486 10.5571C16.4751 10.8643 16.4879 11.1726 16.4872 11.4811V16.994H19V10.4864C19 9.85562 18.9165 9.31779 18.7535 8.87457C18.5856 8.4305 18.3559 8.07081 18.0628 7.79038C17.7665 7.51508 17.4147 7.31477 16.9963 7.19118C16.5583 7.05967 16.1048 6.99537 15.6496 7.00026C15.0103 7.00026 14.4578 7.16476 13.9928 7.48865C13.5295 7.81255 13.1568 8.19014 12.8846 8.61631C12.634 8.01711 12.2743 7.5952 11.7932 7.35569C11.3154 7.12044 10.7845 7.00026 10.2071 7.00026C9.60563 7.00026 9.06597 7.13749 8.60099 7.4128C8.12303 7.69953 7.71383 8.09942 7.40521 8.58136H7.37228Z" fill="black"/>
</svg>