<svg width="24" height="24" viewBox="0 0 24 24" fill="none" xmlns="http://www.w3.org/2000/svg">
<path d="M24 4.6742C23.345 5.65323 22.5415 6.48781 21.5894 7.17793C21.5988 7.36302 21.6035 7.57222 21.6035 7.80552C21.6035 9.10182 21.4154 10.3997 21.0393 11.6991C20.6632 12.9985 20.0886 14.2423 19.3157 15.4305C18.5427 16.6186 17.622 17.6712 16.5535 18.5883C15.485 19.5053 14.2006 20.2365 12.7004 20.7819C11.2001 21.3272 9.5922 21.5999 7.87669 21.5999C5.19936 21.5999 2.7338 20.8735 0.480011 19.4208C0.880032 19.4656 1.26368 19.4879 1.63097 19.4879C3.86767 19.4879 5.86539 18.7956 7.62415 17.4109C6.58128 17.3917 5.64731 17.0691 4.82224 16.4431C3.99717 15.8171 3.42938 15.0172 3.11886 14.0433C3.42578 14.1021 3.72871 14.1315 4.02764 14.1315C4.45792 14.1315 4.88131 14.0751 5.29782 13.9623C4.18488 13.7383 3.2616 13.1812 2.52798 12.2911C1.79439 11.401 1.42759 10.3737 1.42759 9.20906V9.14904C2.11072 9.52915 2.83938 9.73134 3.61358 9.75561C2.95428 9.3139 2.43156 8.73791 2.04541 8.02763C1.65923 7.31734 1.46615 6.54869 1.46615 5.72167C1.46615 4.84944 1.68364 4.03723 2.11862 3.28504C3.32893 4.77761 4.79546 5.97052 6.51822 6.86376C8.24102 7.75702 10.0892 8.25311 12.0629 8.35203C11.9787 7.99948 11.9366 7.63158 11.9364 7.24832C11.9364 5.91013 12.4076 4.76752 13.3501 3.82047C14.2926 2.87343 15.4296 2.3999 16.7612 2.3999C18.1554 2.3999 19.3297 2.91005 20.2842 3.93035C21.3747 3.71328 22.3958 3.32064 23.3474 2.75245C22.9808 3.912 22.2743 4.80652 21.228 5.436C22.1897 5.32115 23.1137 5.06722 24 4.6742H24Z" fill="black"/>
</svg>