<svg width="24" height="24" viewBox="0 0 24 24" fill="none" xmlns="http://www.w3.org/2000/svg">
<path d="M23.496 6.20321C23.3566 5.70501 23.091 5.25124 22.7248 4.88583C22.3586 4.52042 21.9042 4.25575 21.4057 4.11746C19.5345 3.61721 12.012 3.61721 12.012 3.61721C12.012 3.61721 4.50375 3.60521 2.613 4.11746C2.11529 4.25636 1.66184 4.5213 1.29646 4.88668C0.931088 5.25206 0.666145 5.70551 0.527245 6.20321C0.171895 8.11888 -0.00312008 10.0636 0.00449539 12.012C0.00102807 13.9509 0.176016 15.8861 0.527245 17.793C0.666595 18.2909 0.931616 18.7447 1.29687 19.1108C1.66211 19.4768 2.11533 19.7428 2.613 19.8832C4.48425 20.3835 12.012 20.3835 12.012 20.3835C12.012 20.3835 19.5157 20.3835 21.4057 19.8832C21.9042 19.7434 22.3583 19.4777 22.7244 19.1116C23.0905 18.7455 23.3562 18.2914 23.496 17.793C23.8402 15.8872 24.0082 13.9492 23.9962 12.012C24.0082 10.062 23.844 8.12096 23.496 6.20321ZM9.609 15.6022V8.40596L15.8707 12.012L9.609 15.6022Z" fill="black"/>
</svg>