<svg width="1077" height="246" viewBox="0 0 1077 246" fill="none" xmlns="http://www.w3.org/2000/svg">
<g clip-path="url(#clip0_62_24)">
<mask id="mask0_62_24" style="mask-type:luminance" maskUnits="userSpaceOnUse" x="-1" y="-1" width="258" height="238">
<path d="M22.8701 7.62939e-05C10.2301 7.62939e-05 -0.00488281 10.2461 -0.00488281 22.8721V234.102C-0.00488281 234.903 0.0411183 235.71 0.118118 236.49C8.61812 233.323 17.6421 229.861 27.1721 226.054C93.5081 199.574 147.742 177.06 147.792 151.639C147.792 150.825 147.736 150.003 147.62 149.181C144.19 124.083 84.2131 116.302 84.2961 104.8C84.3031 104.189 84.4761 103.55 84.8441 102.911C92.0491 90.2921 120.587 90.8961 131.097 90.0041C141.616 89.0911 166.303 89.2801 167.496 81.7601C167.531 81.5281 167.553 81.2971 167.553 81.0651C167.581 74.0781 150.576 71.3391 150.576 71.3391C150.576 71.3391 171.211 74.4221 171.155 82.4491C171.155 82.8421 171.107 83.2491 170.997 83.6631C168.775 92.2871 150.618 93.9091 138.611 94.4981C127.255 95.0671 109.963 96.3591 109.904 101.906C109.897 102.229 109.953 102.566 110.069 102.91C112.779 111.02 176.159 114.925 216.709 135.971C240.044 148.07 251.649 168.393 256.972 189.389V22.8691C256.972 10.2431 246.729 -0.00292969 234.103 -0.00292969H22.8731L22.8701 7.62939e-05Z" fill="white" style="fill:white;fill-opacity:1;"/>
</mask>
<g mask="url(#mask0_62_24)">
<path d="M0 0H256.98V236.49H0V0Z" fill="#A01E20" style="fill:#A01E20;fill:color(display-p3 0.6275 0.1176 0.1255);fill-opacity:1;"/>
</g>
</g>
<path d="M397.57 79.9901H353.25V206.59H344.12V79.9901H299.8V71.6101H397.57V79.9901Z" fill="#2F2F2F" style="fill:#2F2F2F;fill:color(display-p3 0.1843 0.1843 0.1843);fill-opacity:1;"/>
<path d="M395.19 180.32V110.82H403.95V179.23C403.95 193.82 410.34 200.94 424.93 200.94C438.24 200.94 449.37 194.01 461.23 182.7V110.83H469.99V206.6H461.23V190.73C450.65 200.76 438.25 208.61 424.2 208.61C404.32 208.61 395.19 197.67 395.19 180.33V180.32Z" fill="#2F2F2F" style="fill:#2F2F2F;fill:color(display-p3 0.1843 0.1843 0.1843);fill-opacity:1;"/>
<path d="M508.47 185.24V118.66H491.68V110.81H508.47V75.9702H517.22V110.81H542.22V118.66H517.22V183.96C517.22 194.18 520.69 200.02 532.73 200.02C536.38 200.02 540.02 199.66 542.76 198.74V206.94C539.65 207.49 536.01 207.85 532 207.85C516.13 207.85 508.47 201.47 508.47 185.23V185.24Z" fill="#2F2F2F" style="fill:#2F2F2F;fill:color(display-p3 0.1843 0.1843 0.1843);fill-opacity:1;"/>
<path d="M627.21 183.79V150.77C580.52 158.98 570.12 170.47 570.12 183.97C570.12 194.73 577.24 200.57 589.09 200.57C603.32 200.57 616.26 194.36 627.21 183.78V183.79ZM561.36 184.52C561.36 166.29 576.87 152.6 627.21 144.2V138.37C627.21 123.78 619.56 116.48 606.41 116.48C590.54 116.48 579.96 122.68 569.2 132.35L564.09 126.88C575.95 115.94 588.17 108.82 606.59 108.82C626.47 108.82 635.96 120.13 635.96 137.83V182.88C635.96 194.55 636.69 201.67 638.69 206.59H629.39C628.11 202.58 627.2 197.83 627.2 192.36C615.53 202.39 602.76 208.23 588.35 208.23C570.84 208.23 561.35 199.11 561.35 184.51L561.36 184.52Z" fill="#2F2F2F" style="fill:#2F2F2F;fill:color(display-p3 0.1843 0.1843 0.1843);fill-opacity:1;"/>
<path d="M665.89 206.6V110.28H681.76V124.7C690.15 116.49 702.2 108.28 717.88 108.28C736.31 108.28 746.34 118.86 746.34 137.1V206.59H730.65V140.56C730.65 127.79 725.18 121.78 712.95 121.78C701.46 121.78 691.79 127.79 681.76 137.28V206.6H665.89Z" fill="#2F2F2F" style="fill:#2F2F2F;fill:color(display-p3 0.1843 0.1843 0.1843);fill-opacity:1;"/>
<path d="M843 158.43C843 138.36 833.33 121.76 814.19 121.76C795.05 121.76 785.18 136.72 785.18 158.43C785.18 178.86 794.67 195.27 814.19 195.27C832.42 195.27 843 180.5 843 158.43ZM769.31 158.43C769.31 125.23 790.47 108.26 814.19 108.26C837.91 108.26 858.88 125.23 858.88 158.43C858.88 191.63 837.72 208.59 814.19 208.59C790.66 208.59 769.31 191.45 769.31 158.43Z" fill="#2F2F2F" style="fill:#2F2F2F;fill:color(display-p3 0.1843 0.1843 0.1843);fill-opacity:1;"/>
<path d="M889.7 183.24V123.23H872.92V110.27H889.7V75.9802H905.39V110.27H930.38V123.23H905.39V179.77C905.39 189.99 908.67 195.09 920.34 195.09C923.8 195.09 927.64 194.54 930.19 193.81V206.76C927.46 207.31 921.43 207.86 916.51 207.86C896.26 207.86 889.69 200.01 889.69 183.23L889.7 183.24Z" fill="#2F2F2F" style="fill:#2F2F2F;fill:color(display-p3 0.1843 0.1843 0.1843);fill-opacity:1;"/>
<path d="M1011.73 181.6V154.61C975.07 160.44 962.85 169.38 962.85 181.42C962.85 190.72 969.05 195.65 979.08 195.65C991.86 195.65 1002.8 190.36 1011.73 181.6ZM947.35 183.79C947.35 164.27 963.94 150.41 1011.73 143.66V139.29C1011.73 127.25 1005.35 121.41 993.5 121.41C978.9 121.41 968.14 127.8 958.66 136.01L950.45 126.16C961.58 115.94 975.98 108.28 995.14 108.28C1018.12 108.28 1027.24 120.32 1027.24 140.38V182.88C1027.24 194.55 1027.97 201.67 1029.97 206.59H1013.92C1012.64 202.58 1011.73 198.74 1011.73 193.28C1000.97 203.31 988.92 208.05 974.51 208.05C957.91 208.05 947.34 199.3 947.34 183.79H947.35Z" fill="#2F2F2F" style="fill:#2F2F2F;fill:color(display-p3 0.1843 0.1843 0.1843);fill-opacity:1;"/>
<path d="M652.47 156.89H1041.47" stroke="#F63030" style="stroke:#F63030;stroke:color(display-p3 0.9647 0.1882 0.1882);stroke-opacity:1;" stroke-width="35" stroke-miterlimit="10"/>
<defs>
<clipPath id="clip0_62_24">
<rect width="256.97" height="236.49" fill="white" style="fill:white;fill-opacity:1;"/>
</clipPath>
</defs>
</svg>
